# Blender v3.3.1 OBJ File: 'ProyectoFachada.blend'
# www.blender.org
mtllib Biombo2.mtl
o Cube.004_Cube.003
v -5.017157 -0.000969 -13.164120
v -4.959232 0.110600 -13.164120
v -5.112875 0.110600 -13.164120
v -5.112875 -0.000968 -13.164120
v -4.059984 -0.000969 -13.236475
v -4.059984 0.110600 -13.236475
v -4.059984 0.110600 -13.164120
v -4.059984 -0.000969 -13.164120
v -5.017157 3.109641 -13.164120
v -5.017157 3.207967 -13.164120
v -5.112874 3.109641 -13.164120
v -4.155701 -0.000969 -13.164120
v -4.155701 -0.000969 -13.236475
v -4.155700 3.109641 -13.236475
v -4.155700 3.207966 -13.236475
v -4.059983 3.109641 -13.236475
v -4.959232 0.110600 -13.236475
v -4.213627 0.110600 -13.236475
v -4.213627 0.110600 -13.164120
v -5.112875 0.124252 -13.164120
v -5.112874 3.109641 -13.236475
v -5.112875 0.124252 -13.236475
v -4.155701 0.124252 -13.236475
v -4.059984 0.124252 -13.236475
v -5.017157 0.124252 -13.164120
v -4.059983 3.109641 -13.164120
v -4.059984 0.124253 -13.164120
v -4.155700 3.109641 -13.164120
v -4.155701 0.124252 -13.164120
v -5.017157 3.109641 -13.236475
v -5.017157 0.124252 -13.236475
v -5.017157 3.207967 -13.236475
v -5.112875 -0.000968 -13.236475
v -5.017157 -0.000969 -13.236475
v -4.155700 3.207966 -13.164120
v -5.112875 0.110600 -13.236475
vt 0.529826 0.007290
vt 0.547689 0.040546
vt 0.500308 0.040546
vt 0.500308 0.007290
vt 0.518176 0.199740
vt 0.518176 0.226793
vt 0.480593 0.226794
vt 0.480593 0.199740
vt 0.529826 0.967227
vt 0.529826 0.996537
vt 0.500308 0.967227
vt 0.480593 0.113384
vt 0.518176 0.113384
vt 0.518176 0.042864
vt 0.480593 0.042864
vt 0.794625 0.966336
vt 0.794625 0.996702
vt 0.824065 0.966336
vt 0.518176 0.705384
vt 0.518176 0.156060
vt 0.480593 0.156060
vt 0.480593 0.705384
vt 0.480593 0.230104
vt 0.480593 0.954020
vt 0.518176 0.954020
vt 0.518176 0.230104
vt 0.794625 0.045899
vt 0.824065 0.045899
vt 0.529826 0.044616
vt 0.500308 0.044616
vt 0.518176 0.230104
vt 0.518176 0.954020
vt 0.480593 0.954020
vt 0.480593 0.230104
vt 0.825003 0.044616
vt 0.825003 0.967227
vt 0.795485 0.967227
vt 0.795485 0.044616
vt 0.500222 0.045899
vt 0.500222 0.966336
vt 0.529662 0.966336
vt 0.529662 0.045899
vt 0.529662 0.996702
vt 0.480593 0.818580
vt 0.518176 0.818580
vt 0.518176 0.748060
vt 0.480593 0.748060
vt 0.795485 0.996537
vt 0.500222 0.007227
vt 0.500222 0.041683
vt 0.547479 0.041683
vt 0.529662 0.007227
vt 0.480593 0.199740
vt 0.480593 0.226793
vt 0.518176 0.226793
vt 0.518176 0.199740
vt 0.794625 0.007227
vt 0.776809 0.041683
vt 0.824065 0.041683
vt 0.824065 0.007227
vt 0.518176 0.818580
vt 0.480593 0.818580
vt 0.480593 0.748060
vt 0.518176 0.748060
vt 0.825003 0.007290
vt 0.825003 0.040546
vt 0.777622 0.040546
vt 0.795485 0.007290
vt 0.480593 0.113384
vt 0.518176 0.113384
vt 0.480593 0.042864
vt 0.518176 0.042864
vn 0.0000 0.0000 1.0000
vn 1.0000 0.0000 0.0000
vn 0.0000 -1.0000 0.0000
vn 0.0000 0.0000 -1.0000
vn -1.0000 0.0000 0.0000
vn -0.8875 -0.4608 0.0000
vn -0.7165 0.6975 0.0000
vn 0.8875 -0.4608 0.0000
vn 0.0000 1.0000 0.0000
vn 0.7165 0.6975 0.0000
usemtl Biombo2
s 1
f 1/1/1 2/2/1 3/3/1 4/4/1
f 5/5/2 6/6/2 7/7/2 8/8/2
f 9/9/1 10/10/1 11/11/1
f 12/12/3 13/13/3 5/14/3 8/15/3
f 14/16/4 15/17/4 16/18/4
f 17/19/3 18/20/3 19/21/3 2/22/3
f 20/23/5 11/24/5 21/25/5 22/26/5
f 23/27/4 14/16/4 16/18/4 24/28/4
f 25/29/1 9/9/1 11/11/1 20/30/1
f 24/31/2 16/32/2 26/33/2 27/34/2
f 27/35/1 26/36/1 28/37/1 29/38/1
f 29/38/1 28/37/1 9/9/1 25/29/1
f 22/39/4 21/40/4 30/41/4 31/42/4
f 31/42/4 30/41/4 14/16/4 23/27/4
f 21/40/4 32/43/4 30/41/4
f 30/41/4 32/43/4 15/17/4 14/16/4
f 4/44/3 33/45/3 34/46/3 1/47/3
f 19/21/6 18/20/6 13/13/6 12/12/6
f 26/36/1 35/48/1 28/37/1
f 28/37/1 35/48/1 10/10/1 9/9/1
f 33/49/4 36/50/4 17/51/4 34/52/4
f 4/53/5 3/54/5 36/55/5 33/56/5
f 13/57/4 18/58/4 6/59/4 5/60/4
f 21/61/7 11/62/7 10/63/7 32/64/7
f 2/22/8 1/47/8 34/46/8 17/19/8
f 8/65/1 7/66/1 19/67/1 12/68/1
f 32/64/9 10/63/9 35/69/9 15/70/9
f 15/70/10 35/69/10 26/71/10 16/72/10
f 17/51/4 31/42/4 23/27/4 18/58/4
f 36/50/4 22/39/4 31/42/4 17/51/4
f 19/67/1 29/38/1 25/29/1 2/2/1
f 7/66/1 27/35/1 29/38/1 19/67/1
f 6/6/2 24/31/2 27/34/2 7/7/2
f 2/2/1 25/29/1 20/30/1 3/3/1
f 18/58/4 23/27/4 24/28/4 6/59/4
f 3/54/5 20/23/5 22/26/5 36/55/5
o Cube.005_Cube.004
v -6.074153 -0.000968 -13.164120
v -6.016228 0.110600 -13.164120
v -6.169870 0.110600 -13.164120
v -6.169870 -0.000968 -13.164120
v -5.116980 -0.000968 -13.236475
v -5.116980 0.110600 -13.236475
v -5.116980 0.110600 -13.164120
v -5.116980 -0.000968 -13.164120
v -6.074153 3.109641 -13.164120
v -6.074153 3.207967 -13.164120
v -6.169870 3.109641 -13.164120
v -5.212697 -0.000968 -13.164120
v -5.212697 -0.000968 -13.236475
v -5.212697 3.109641 -13.236475
v -5.212697 3.207967 -13.236475
v -5.116979 3.109641 -13.236475
v -6.016228 0.110600 -13.236475
v -5.270622 0.110600 -13.236475
v -5.270622 0.110600 -13.164120
v -6.169870 0.124252 -13.164120
v -6.169870 3.109641 -13.236475
v -6.169870 0.124252 -13.236475
v -5.212697 0.124252 -13.236475
v -5.116980 0.124252 -13.236475
v -6.074153 0.124252 -13.164120
v -5.116979 3.109641 -13.164120
v -5.116980 0.124253 -13.164120
v -5.212697 3.109641 -13.164120
v -5.212697 0.124252 -13.164120
v -6.074153 3.109641 -13.236475
v -6.074153 0.124252 -13.236475
v -6.074153 3.207967 -13.236475
v -6.169870 -0.000968 -13.236475
v -6.074153 -0.000968 -13.236475
v -5.212697 3.207967 -13.164120
v -6.169870 0.110600 -13.236475
vt 0.203864 0.007290
vt 0.221728 0.040546
vt 0.174347 0.040546
vt 0.174347 0.007290
vt 0.518176 0.199740
vt 0.518176 0.226793
vt 0.480593 0.226794
vt 0.480593 0.199740
vt 0.203864 0.967227
vt 0.203864 0.996537
vt 0.174347 0.967227
vt 0.480593 0.113384
vt 0.518176 0.113384
vt 0.518176 0.042864
vt 0.480593 0.042864
vt 0.469519 0.966336
vt 0.469519 0.996702
vt 0.498960 0.966336
vt 0.518176 0.705384
vt 0.518176 0.156060
vt 0.480593 0.156060
vt 0.480593 0.705384
vt 0.480593 0.230104
vt 0.480593 0.954020
vt 0.518176 0.954020
vt 0.518176 0.230104
vt 0.469519 0.045899
vt 0.498960 0.045899
vt 0.203864 0.044616
vt 0.174347 0.044616
vt 0.518176 0.230104
vt 0.518176 0.954020
vt 0.480593 0.954020
vt 0.480593 0.230104
vt 0.499042 0.044616
vt 0.499042 0.967227
vt 0.469524 0.967227
vt 0.469524 0.044616
vt 0.175116 0.045899
vt 0.175116 0.966336
vt 0.204557 0.966336
vt 0.204557 0.045899
vt 0.204557 0.996702
vt 0.480593 0.818580
vt 0.518176 0.818580
vt 0.518176 0.748060
vt 0.480593 0.748060
vt 0.469524 0.996537
vt 0.175116 0.007227
vt 0.175116 0.041683
vt 0.222373 0.041683
vt 0.204557 0.007227
vt 0.480593 0.199740
vt 0.480593 0.226793
vt 0.518176 0.226793
vt 0.518176 0.199740
vt 0.469519 0.007227
vt 0.451703 0.041683
vt 0.498960 0.041683
vt 0.498960 0.007227
vt 0.518176 0.818580
vt 0.480593 0.818580
vt 0.480593 0.748060
vt 0.518176 0.748060
vt 0.499042 0.007290
vt 0.499042 0.040546
vt 0.451661 0.040546
vt 0.469524 0.007290
vt 0.480593 0.113384
vt 0.518176 0.113384
vt 0.480593 0.042864
vt 0.518176 0.042864
vn 0.0000 0.0000 1.0000
vn 1.0000 0.0000 0.0000
vn 0.0000 -1.0000 0.0000
vn -0.0000 0.0000 -1.0000
vn -1.0000 0.0000 0.0000
vn -0.8875 -0.4608 0.0000
vn -0.7165 0.6975 0.0000
vn 0.8875 -0.4608 0.0000
vn 0.0000 1.0000 0.0000
vn 0.7165 0.6975 0.0000
usemtl Biombo2
s 1
f 37/73/11 38/74/11 39/75/11 40/76/11
f 41/77/12 42/78/12 43/79/12 44/80/12
f 45/81/11 46/82/11 47/83/11
f 48/84/13 49/85/13 41/86/13 44/87/13
f 50/88/14 51/89/14 52/90/14
f 53/91/13 54/92/13 55/93/13 38/94/13
f 56/95/15 47/96/15 57/97/15 58/98/15
f 59/99/14 50/88/14 52/90/14 60/100/14
f 61/101/11 45/81/11 47/83/11 56/102/11
f 60/103/12 52/104/12 62/105/12 63/106/12
f 63/107/11 62/108/11 64/109/11 65/110/11
f 65/110/11 64/109/11 45/81/11 61/101/11
f 58/111/14 57/112/14 66/113/14 67/114/14
f 67/114/14 66/113/14 50/88/14 59/99/14
f 57/112/14 68/115/14 66/113/14
f 66/113/14 68/115/14 51/89/14 50/88/14
f 40/116/13 69/117/13 70/118/13 37/119/13
f 55/93/16 54/92/16 49/85/16 48/84/16
f 62/108/11 71/120/11 64/109/11
f 64/109/11 71/120/11 46/82/11 45/81/11
f 69/121/14 72/122/14 53/123/14 70/124/14
f 40/125/15 39/126/15 72/127/15 69/128/15
f 49/129/14 54/130/14 42/131/14 41/132/14
f 57/133/17 47/134/17 46/135/17 68/136/17
f 38/94/18 37/119/18 70/118/18 53/91/18
f 44/137/11 43/138/11 55/139/11 48/140/11
f 68/136/19 46/135/19 71/141/19 51/142/19
f 51/142/20 71/141/20 62/143/20 52/144/20
f 53/123/14 67/114/14 59/99/14 54/130/14
f 72/122/14 58/111/14 67/114/14 53/123/14
f 55/139/11 65/110/11 61/101/11 38/74/11
f 43/138/11 63/107/11 65/110/11 55/139/11
f 42/78/12 60/103/12 63/106/12 43/79/12
f 38/74/11 61/101/11 56/102/11 39/75/11
f 54/130/14 59/99/14 60/100/14 42/131/14
f 39/126/15 56/95/15 58/98/15 72/127/15
o Cube.007
v -7.137065 -0.000968 -13.164120
v -7.079140 0.110600 -13.164120
v -7.232783 0.110600 -13.164120
v -7.232783 -0.000968 -13.164120
v -6.179892 -0.000968 -13.236475
v -6.179892 0.110600 -13.236475
v -6.179892 0.110600 -13.164120
v -6.179892 -0.000968 -13.164120
v -7.137065 3.109641 -13.164120
v -7.137065 3.207967 -13.164120
v -7.232782 3.109641 -13.164120
v -6.275609 -0.000968 -13.164120
v -6.275609 -0.000968 -13.236475
v -6.275609 3.109641 -13.236475
v -6.275609 3.207967 -13.236475
v -6.179892 3.109641 -13.236475
v -7.079140 0.110600 -13.236475
v -6.333534 0.110600 -13.236475
v -6.333534 0.110600 -13.164120
v -7.232783 0.124252 -13.164120
v -7.232782 3.109641 -13.236475
v -7.232783 0.124252 -13.236475
v -6.275609 0.124252 -13.236475
v -6.179892 0.124252 -13.236475
v -7.137065 0.124252 -13.164120
v -6.179892 3.109641 -13.164120
v -6.179892 0.124253 -13.164120
v -6.275609 3.109641 -13.164120
v -6.275609 0.124252 -13.164120
v -7.137065 3.109641 -13.236475
v -7.137065 0.124252 -13.236475
v -7.137065 3.207967 -13.236475
v -7.232783 -0.000968 -13.236475
v -7.137065 -0.000968 -13.236475
v -6.275609 3.207967 -13.164120
v -7.232783 0.110600 -13.236475
vt 0.532567 0.009523
vt 0.550493 0.042444
vt 0.502946 0.042444
vt 0.502946 0.009523
vt 0.518176 0.199740
vt 0.518176 0.226793
vt 0.480593 0.226794
vt 0.480593 0.199740
vt 0.532567 0.964300
vt 0.532567 0.993314
vt 0.502946 0.964300
vt 0.480593 0.113384
vt 0.518176 0.113384
vt 0.518176 0.042864
vt 0.480593 0.042864
vt 0.793488 0.963616
vt 0.793488 0.993713
vt 0.822778 0.963616
vt 0.518176 0.705384
vt 0.518176 0.156060
vt 0.480593 0.156060
vt 0.480593 0.705384
vt 0.480593 0.230104
vt 0.480593 0.954020
vt 0.518176 0.954020
vt 0.518176 0.230104
vt 0.793488 0.049809
vt 0.822778 0.049809
vt 0.532567 0.046473
vt 0.502946 0.046473
vt 0.518176 0.230104
vt 0.518176 0.954020
vt 0.480593 0.954020
vt 0.480593 0.230104
vt 0.828782 0.046473
vt 0.828782 0.964300
vt 0.799160 0.964300
vt 0.799160 0.046473
vt 0.500588 0.049809
vt 0.500588 0.963616
vt 0.529878 0.963616
vt 0.529878 0.049809
vt 0.529878 0.993713
vt 0.480593 0.818580
vt 0.518176 0.818580
vt 0.518176 0.748060
vt 0.480593 0.748060
vt 0.799160 0.993314
vt 0.500588 0.011480
vt 0.500588 0.045630
vt 0.547604 0.045630
vt 0.529878 0.011480
vt 0.480593 0.199740
vt 0.480593 0.226793
vt 0.518176 0.226793
vt 0.518176 0.199740
vt 0.793488 0.011480
vt 0.775763 0.045630
vt 0.822778 0.045630
vt 0.822778 0.011480
vt 0.518176 0.818580
vt 0.480593 0.818580
vt 0.480593 0.748060
vt 0.518176 0.748060
vt 0.828782 0.009523
vt 0.828782 0.042445
vt 0.781234 0.042444
vt 0.799160 0.009523
vt 0.480593 0.113384
vt 0.518176 0.113384
vt 0.480593 0.042864
vt 0.518176 0.042864
vt 0.496173 0.022727
vt 0.497325 0.022727
vt 0.497325 0.227273
vt 0.496173 0.227273
vt 0.496173 0.000000
vt 0.497325 0.000000
vt 0.497325 0.250000
vt 0.496173 0.250000
vn 0.0000 0.0000 1.0000
vn 1.0000 0.0000 0.0000
vn 0.0000 -1.0000 0.0000
vn 0.0000 0.0000 -1.0000
vn -1.0000 0.0000 0.0000
vn -0.8875 -0.4608 0.0000
vn -0.7165 0.6975 0.0000
vn 0.8875 -0.4608 0.0000
vn 0.0000 1.0000 0.0000
vn 0.7165 0.6975 0.0000
usemtl Biombo2
s 1
f 73/145/21 74/146/21 75/147/21 76/148/21
f 77/149/22 78/150/22 79/151/22 80/152/22
f 81/153/21 82/154/21 83/155/21
f 84/156/23 85/157/23 77/158/23 80/159/23
f 86/160/24 87/161/24 88/162/24
f 89/163/23 90/164/23 91/165/23 74/166/23
f 92/167/25 83/168/25 93/169/25 94/170/25
f 95/171/24 86/160/24 88/162/24 96/172/24
f 97/173/21 81/153/21 83/155/21 92/174/21
f 96/175/22 88/176/22 98/177/22 99/178/22
f 99/179/21 98/180/21 100/181/21 101/182/21
f 101/182/21 100/181/21 81/153/21 97/173/21
f 94/183/24 93/184/24 102/185/24 103/186/24
f 103/186/24 102/185/24 86/160/24 95/171/24
f 93/184/24 104/187/24 102/185/24
f 102/185/24 104/187/24 87/161/24 86/160/24
f 76/188/23 105/189/23 106/190/23 73/191/23
f 91/165/26 90/164/26 85/157/26 84/156/26
f 98/180/21 107/192/21 100/181/21
f 100/181/21 107/192/21 82/154/21 81/153/21
f 105/193/24 108/194/24 89/195/24 106/196/24
f 76/197/25 75/198/25 108/199/25 105/200/25
f 85/201/24 90/202/24 78/203/24 77/204/24
f 93/205/27 83/206/27 82/207/27 104/208/27
f 74/166/28 73/191/28 106/190/28 89/163/28
f 80/209/21 79/210/21 91/211/21 84/212/21
f 104/208/29 82/207/29 107/213/29 87/214/29
f 87/214/30 107/213/30 98/215/30 88/216/30
f 89/195/24 103/186/24 95/171/24 90/202/24
f 108/194/24 94/183/24 103/186/24 89/195/24
f 91/217/21 101/218/21 97/219/21 74/220/21
f 79/221/21 99/222/21 101/218/21 91/217/21
f 78/150/22 96/175/22 99/178/22 79/151/22
f 74/220/21 97/219/21 92/223/21 75/224/21
f 90/202/24 95/171/24 96/172/24 78/203/24
f 75/198/25 92/167/25 94/170/25 108/199/25
o Cube.008
v -8.199977 -0.000968 -13.164120
v -8.142052 0.110600 -13.164120
v -8.295694 0.110600 -13.164120
v -8.295694 -0.000968 -13.164120
v -7.242804 -0.000968 -13.236475
v -7.242804 0.110600 -13.236475
v -7.242804 0.110600 -13.164120
v -7.242804 -0.000968 -13.164120
v -8.199977 3.109641 -13.164120
v -8.199977 3.207967 -13.164120
v -8.295693 3.109641 -13.164120
v -7.338521 -0.000968 -13.164120
v -7.338521 -0.000968 -13.236475
v -7.338521 3.109641 -13.236475
v -7.338521 3.207967 -13.236475
v -7.242803 3.109641 -13.236475
v -8.142052 0.110600 -13.236475
v -7.396446 0.110600 -13.236475
v -7.396446 0.110600 -13.164120
v -8.295694 0.124253 -13.164120
v -8.295693 3.109641 -13.236475
v -8.295694 0.124253 -13.236475
v -7.338521 0.124253 -13.236475
v -7.242804 0.124252 -13.236475
v -8.199977 0.124253 -13.164120
v -7.242803 3.109641 -13.164120
v -7.242804 0.124253 -13.164120
v -7.338521 3.109641 -13.164120
v -7.338521 0.124253 -13.164120
v -8.199977 3.109641 -13.236475
v -8.199977 0.124253 -13.236475
v -8.199977 3.207967 -13.236475
v -8.295694 -0.000968 -13.236475
v -8.199977 -0.000968 -13.236475
v -7.338521 3.207967 -13.164120
v -8.295694 0.110600 -13.236475
vt 0.203630 0.009523
vt 0.221556 0.042444
vt 0.174008 0.042444
vt 0.174008 0.009523
vt 0.518176 0.199740
vt 0.518176 0.226793
vt 0.480593 0.226794
vt 0.480593 0.199740
vt 0.203630 0.964300
vt 0.203630 0.993314
vt 0.174008 0.964300
vt 0.480593 0.113384
vt 0.518176 0.113384
vt 0.518176 0.042864
vt 0.480593 0.042864
vt 0.468232 0.963616
vt 0.468232 0.993713
vt 0.497522 0.963616
vt 0.518176 0.705384
vt 0.518176 0.156060
vt 0.480593 0.156060
vt 0.480593 0.705384
vt 0.480593 0.230104
vt 0.480593 0.954020
vt 0.518176 0.954020
vt 0.518176 0.230104
vt 0.468232 0.049809
vt 0.497522 0.049809
vt 0.203630 0.046473
vt 0.174008 0.046473
vt 0.518176 0.230104
vt 0.518176 0.954020
vt 0.480593 0.954020
vt 0.480593 0.230104
vt 0.499844 0.046473
vt 0.499844 0.964300
vt 0.470223 0.964300
vt 0.470223 0.046473
vt 0.175332 0.049809
vt 0.175332 0.963616
vt 0.204622 0.963616
vt 0.204622 0.049809
vt 0.204622 0.993713
vt 0.480593 0.818580
vt 0.518176 0.818580
vt 0.518176 0.748060
vt 0.480593 0.748060
vt 0.470223 0.993314
vt 0.175332 0.011480
vt 0.175332 0.045630
vt 0.222347 0.045630
vt 0.204622 0.011480
vt 0.480593 0.199740
vt 0.480593 0.226793
vt 0.518176 0.226793
vt 0.518176 0.199740
vt 0.468232 0.011480
vt 0.450506 0.045630
vt 0.497522 0.045630
vt 0.497522 0.011480
vt 0.518176 0.818580
vt 0.480593 0.818580
vt 0.480593 0.748060
vt 0.518176 0.748060
vt 0.499844 0.009523
vt 0.499844 0.042445
vt 0.452297 0.042444
vt 0.470223 0.009523
vt 0.480593 0.113384
vt 0.518176 0.113384
vt 0.480593 0.042864
vt 0.518176 0.042864
vt 0.496173 0.022727
vt 0.497325 0.022727
vt 0.497325 0.227273
vt 0.496173 0.227273
vt 0.496173 0.000000
vt 0.497325 0.000000
vt 0.497325 0.250000
vt 0.496173 0.250000
vn 0.0000 0.0000 1.0000
vn 1.0000 0.0000 0.0000
vn -0.0000 -1.0000 0.0000
vn -0.0000 0.0000 -1.0000
vn -1.0000 0.0000 0.0000
vn -0.8875 -0.4608 0.0000
vn -0.7166 0.6975 0.0000
vn 0.8875 -0.4608 0.0000
vn 0.0000 1.0000 0.0000
vn 0.7165 0.6975 0.0000
usemtl Biombo2
s 1
f 109/225/31 110/226/31 111/227/31 112/228/31
f 113/229/32 114/230/32 115/231/32 116/232/32
f 117/233/31 118/234/31 119/235/31
f 120/236/33 121/237/33 113/238/33 116/239/33
f 122/240/34 123/241/34 124/242/34
f 125/243/33 126/244/33 127/245/33 110/246/33
f 128/247/35 119/248/35 129/249/35 130/250/35
f 131/251/34 122/240/34 124/242/34 132/252/34
f 133/253/31 117/233/31 119/235/31 128/254/31
f 132/255/32 124/256/32 134/257/32 135/258/32
f 135/259/31 134/260/31 136/261/31 137/262/31
f 137/262/31 136/261/31 117/233/31 133/253/31
f 130/263/34 129/264/34 138/265/34 139/266/34
f 139/266/34 138/265/34 122/240/34 131/251/34
f 129/264/34 140/267/34 138/265/34
f 138/265/34 140/267/34 123/241/34 122/240/34
f 112/268/33 141/269/33 142/270/33 109/271/33
f 127/245/36 126/244/36 121/237/36 120/236/36
f 134/260/31 143/272/31 136/261/31
f 136/261/31 143/272/31 118/234/31 117/233/31
f 141/273/34 144/274/34 125/275/34 142/276/34
f 112/277/35 111/278/35 144/279/35 141/280/35
f 121/281/34 126/282/34 114/283/34 113/284/34
f 129/285/37 119/286/37 118/287/37 140/288/37
f 110/246/38 109/271/38 142/270/38 125/243/38
f 116/289/31 115/290/31 127/291/31 120/292/31
f 140/288/39 118/287/39 143/293/39 123/294/39
f 123/294/40 143/293/40 134/295/40 124/296/40
f 125/275/34 139/266/34 131/251/34 126/282/34
f 144/274/34 130/263/34 139/266/34 125/275/34
f 127/297/31 137/298/31 133/299/31 110/300/31
f 115/301/31 135/302/31 137/298/31 127/297/31
f 114/230/32 132/255/32 135/258/32 115/231/32
f 110/300/31 133/299/31 128/303/31 111/304/31
f 126/282/34 131/251/34 132/252/34 114/283/34
f 111/278/35 128/247/35 130/250/35 144/279/35
