# Blender v3.3.1 OBJ File: ''
# www.blender.org
mtllib LeftMid.mtl
o Biombo_Cube.003
v -0.051148 0.917274 -0.336698
v -0.051148 1.619182 -0.336697
v 0.051154 1.619182 -0.336697
v 0.051154 0.917274 -0.336698
v -0.051148 0.917274 0.256241
v -0.051148 0.917274 0.359402
v -0.051148 1.008891 0.353446
v -0.051148 1.098941 0.335683
v -0.051148 1.185882 0.306413
v -0.051148 1.268228 0.266141
v -0.051148 1.344568 0.215555
v -0.051148 1.413598 0.155518
v -0.051148 1.474136 0.087061
v -0.051148 1.525144 0.011352
v -0.051148 1.565753 -0.070311
v -0.051148 1.595266 -0.156532
v -0.051148 1.613177 -0.245837
v -0.051148 0.917274 -0.266100
v -0.051148 1.504305 -0.266100
v -0.051148 1.498732 -0.197478
v -0.051148 1.482115 -0.130030
v -0.051148 1.454734 -0.064909
v -0.051148 1.417061 -0.003231
v -0.051148 1.369738 0.053948
v -0.051148 1.313575 0.105652
v -0.051148 1.249534 0.150995
v -0.051148 1.178710 0.189202
v -0.051148 1.102316 0.219618
v -0.051148 1.021656 0.241723
v -0.051148 0.938113 0.255139
v 0.051154 -1.560315 0.359400
v -0.051148 -1.560315 0.359400
v -0.051148 -1.560315 0.259635
v 0.051154 -1.560315 0.259635
v 0.051154 1.098941 0.335683
v 0.051154 1.008891 0.353446
v 0.051154 0.917274 0.359402
v 0.051154 0.917274 0.256241
v 0.051154 0.938113 0.255139
v 0.051154 1.021656 0.241723
v 0.051154 1.102316 0.219618
v 0.051154 1.178710 0.189202
v 0.051154 1.249534 0.150995
v 0.051154 1.313575 0.105652
v 0.051154 1.369738 0.053948
v 0.051154 1.417061 -0.003231
v 0.051154 1.454734 -0.064909
v 0.051154 1.482115 -0.130030
v 0.051154 1.498732 -0.197478
v 0.051154 1.504305 -0.266100
v 0.051154 0.917274 -0.266100
v 0.051154 1.613177 -0.245837
v 0.051154 1.595266 -0.156532
v 0.051154 1.565753 -0.070311
v 0.051154 1.525144 0.011352
v 0.051154 1.474136 0.087061
v 0.051154 1.413598 0.155518
v 0.051154 1.344568 0.215555
v 0.051154 1.268228 0.266141
v 0.051154 1.185882 0.306413
v 0.051154 -1.463464 0.359400
v -0.051148 -1.463464 0.359400
v -0.051148 -1.463464 -0.336699
v 0.051154 -1.463464 -0.336699
v 0.051154 -1.560315 -0.266102
v 0.051154 -1.560315 -0.336699
v 0.051154 0.853117 -0.266100
v -0.051148 -1.560315 -0.336699
v -0.051148 -1.560315 -0.266102
v -0.051148 0.853117 -0.266100
v 0.051154 0.853117 0.259636
v -0.043138 1.504305 -0.266100
v -0.043138 0.853117 -0.266100
v -0.043138 0.854716 -0.266100
v 0.043143 0.854716 -0.266100
v 0.043143 0.853117 -0.266100
v 0.043143 1.504305 -0.266100
v 0.043143 0.853117 0.259636
v -0.051148 0.853117 0.259636
v -0.043138 0.853117 0.259636
v -0.043138 -1.358273 0.259635
v -0.043138 -1.448300 0.259635
v 0.043143 -1.448300 0.259635
v 0.043143 -1.358273 0.259635
v 0.043143 -1.358273 -0.266102
v 0.043143 -1.448300 -0.266102
v -0.043138 -1.448300 -0.266102
v -0.043138 -1.358273 -0.266102
v -0.043138 1.498732 -0.197478
v 0.043143 1.498732 -0.197478
v -0.043138 1.482115 -0.130030
v 0.043143 1.482115 -0.130030
v -0.043138 1.454734 -0.064909
v 0.043143 1.454734 -0.064909
v 0.043143 1.417061 -0.003231
v -0.043138 1.417061 -0.003231
v 0.043143 1.369738 0.053948
v -0.043138 1.369738 0.053948
v 0.043143 1.313575 0.105652
v -0.043138 1.313575 0.105652
v 0.043143 1.249534 0.150995
v -0.043138 1.249534 0.150995
v 0.043143 1.178710 0.189202
v -0.043138 1.178710 0.189202
v 0.043143 1.102316 0.219618
v -0.043138 1.102316 0.219618
v 0.043143 1.021656 0.241723
v -0.043138 1.021656 0.241723
v 0.043143 0.938113 0.255139
v -0.043138 0.938113 0.255139
v -0.043138 0.854716 0.259553
v 0.043143 0.854716 0.259553
v -0.043138 -1.448300 0.212411
v 0.043143 -1.448300 0.212411
v 0.043143 -1.408621 -0.154923
v -0.043138 -1.408621 -0.154923
v -0.043138 -1.448300 -0.205797
v 0.043143 -1.448300 -0.205797
v -0.043138 -1.408621 0.161538
v 0.043143 -1.408621 0.161538
v -0.043138 0.854716 -0.205795
v -0.043138 0.854716 -0.154922
v -0.043138 0.854716 0.161539
v -0.043138 0.854716 0.212413
v 0.043143 0.854716 0.212413
v 0.043143 0.854716 0.161539
v 0.043143 0.854716 -0.154922
v 0.043143 0.854716 -0.205795
v 0.043143 -1.358273 0.212411
v -0.043138 -1.358273 -0.205797
v -0.043138 -1.358273 0.212411
v 0.043143 -1.358273 0.161538
v 0.043143 -1.358273 -0.205797
v -0.043138 -1.358273 -0.154923
v -0.043138 -1.358273 0.161538
v 0.043143 -1.358273 -0.154923
vt 5.546630 -0.932869
vt 5.546632 -2.547426
vt 6.353272 -2.547426
vt 6.353271 -0.932869
vt -0.000257 2.858236
vt -0.000257 3.427045
vt -0.016699 3.394207
vt -0.032859 3.296263
vt -0.048461 3.134875
vt -0.063238 2.912823
vt -0.076938 2.633897
vt -0.089326 2.302866
vt -0.100190 1.925404
vt -0.109344 1.507953
vt -0.116631 1.057672
vt -0.121927 0.582265
vt -0.125142 0.089855
vt -0.126219 -0.411132
vt -0.000258 -0.411132
vt -0.000258 -0.021869
vt -0.105604 -0.021869
vt -0.104604 0.356499
vt -0.101621 0.728399
vt -0.096708 1.087463
vt -0.089947 1.427547
vt -0.081455 1.742826
vt -0.071376 2.027914
vt -0.059883 2.277924
vt -0.047174 2.488591
vt -0.033464 2.656300
vt -0.018989 2.778182
vt -0.003997 2.852159
vt -5.772847 1.642693
vt -6.579487 1.642693
vt -6.579487 1.499985
vt -5.772847 1.499985
vt -0.603439 -0.280349
vt -0.587279 -0.378294
vt -0.570837 -0.411132
vt -0.570837 0.157678
vt -0.574577 0.163754
vt -0.589570 0.237731
vt -0.604044 0.359614
vt -0.617754 0.527323
vt -0.630464 0.737990
vt -0.641956 0.987999
vt -0.652035 1.273088
vt -0.660527 1.588366
vt -0.667288 1.928449
vt -0.672202 2.287514
vt -0.675184 2.659414
vt -0.676183 3.037782
vt -0.570837 3.037782
vt -0.570837 3.427045
vt -0.696799 3.427044
vt -0.695721 2.926058
vt -0.692507 2.433648
vt -0.687211 1.958241
vt -0.679923 1.507960
vt -0.670769 1.090509
vt -0.659906 0.713046
vt -0.647518 0.382017
vt -0.633818 0.103090
vt -0.619041 -0.118963
vt 7.159915 -2.325672
vt 7.159915 3.125375
vt 6.353273 3.125375
vt 6.353273 -2.325672
vt 5.546622 4.543397
vt 6.353261 4.543397
vt -6.685822 -0.523721
vt -8.066441 -0.523721
vt -0.143599 3.427045
vt -0.559324 3.037782
vt -8.066440 1.499985
vt -7.259800 1.499985
vt -7.259800 1.625826
vt -8.066440 1.625826
vt -7.259800 1.760570
vt -8.066440 1.760570
vt -7.259800 1.901914
vt -8.066441 1.901914
vt -7.259800 2.047442
vt -8.066441 2.047442
vt -7.259800 2.194663
vt -8.066441 2.194663
vt 7.159915 4.485686
vt 6.353273 4.485686
vt 6.353273 4.325639
vt 7.159915 4.325639
vt 6.353273 4.148782
vt 7.159913 4.148782
vt 6.353273 3.958144
vt 7.159913 3.958144
vt 6.353273 3.756989
vt 7.159915 3.756989
vt 6.353273 3.548758
vt 7.159913 3.548758
vt 6.353273 3.337013
vt 7.159913 3.337013
vt 5.546622 1.438341
vt 5.546622 1.499985
vt 4.166005 1.499985
vt 0.011256 -0.021869
vt 5.546622 -0.585365
vt 5.546622 -0.523721
vt 3.595590 -0.523721
vt -0.559324 0.138958
vt 5.546622 4.766176
vt 6.353261 4.766176
vt -5.772847 1.499985
vt -4.966206 1.499985
vt -4.966206 1.600970
vt -5.772847 1.600970
vt 7.159915 -2.547426
vt 6.353273 -2.547426
vt 8.710041 -2.547426
vt 8.773205 -2.547426
vt 8.773203 -1.203334
vt 8.773203 -1.056439
vt 8.710039 -1.056439
vt 8.710039 -1.060100
vt 8.029727 -1.060100
vt 8.029727 -1.056439
vt 7.966562 -1.056439
vt 7.966562 -1.203334
vt 7.966566 -2.547426
vt 8.029728 -2.547426
vt 7.223079 3.004043
vt 7.159915 3.004043
vt 7.159915 -2.547426
vt 7.966556 -2.547426
vt 7.966556 3.004043
vt 7.903391 3.004043
vt 7.903391 -2.082683
vt 7.903391 -2.289766
vt 7.223079 -2.289766
vt 7.223079 -2.082683
vt 8.773196 4.469470
vt 7.966556 4.469470
vt 8.029721 4.006865
vt 8.029721 4.212994
vt 8.710033 4.212994
vt 8.710033 4.006865
vt -2.118629 1.599623
vt -2.181793 1.599623
vt -2.181793 1.499985
vt -2.118629 1.499985
vt -2.244958 1.499985
vt -2.181794 1.499985
vt -2.181794 1.599623
vt -2.244958 1.599623
vt -2.118629 1.700519
vt -2.181793 1.700519
vt -2.181794 1.700519
vt -2.244958 1.700519
vt -2.118630 1.800944
vt -2.181793 1.800944
vt -2.181794 1.800944
vt -2.244958 1.800944
vt 7.223079 4.479577
vt 7.159915 4.479577
vt 7.159915 4.375497
vt 7.223079 4.375497
vt 7.903391 4.375497
vt 7.966556 4.375497
vt 7.966556 4.479577
vt 7.903391 4.479577
vt 7.159915 4.250494
vt 7.223079 4.250494
vt 7.903391 4.250494
vt 7.966556 4.250494
vt 7.159915 4.106699
vt 7.223079 4.106699
vt 7.966556 4.106699
vt 7.903391 4.106699
vt 7.159915 3.946585
vt 7.223079 3.946585
vt 7.966556 3.946585
vt 7.903391 3.946585
vt 7.159915 3.772880
vt 7.223079 3.772880
vt 0.567558 0.804637
vt 0.567558 0.821783
vt 0.570727 0.821783
vt 0.570727 0.804637
vt 7.159915 3.588562
vt 7.223079 3.588562
vt 7.903391 3.588562
vt 7.966556 3.588562
vt 7.966556 3.772880
vt 7.903391 3.772880
vt 7.159915 3.396785
vt 7.223079 3.396785
vt 7.903391 3.396785
vt 7.966556 3.396785
vt 7.159915 3.200826
vt 7.223079 3.200826
vt 7.903391 3.200826
vt 7.966556 3.200826
vt 7.966556 3.152577
vt 7.903391 3.007747
vt 7.159915 3.152577
vt 7.223079 3.007747
vt -2.925270 1.567535
vt -2.925270 1.499985
vt -2.244958 1.499985
vt -2.244958 1.567535
vt -3.605582 1.499985
vt -2.925270 1.499985
vt -2.925270 1.574905
vt -3.605582 1.574905
vt -3.605582 1.586247
vt -4.285893 1.586247
vt -4.285893 1.499985
vt -3.605582 1.499985
vt -4.285894 1.605626
vt -4.966206 1.605626
vt -4.966206 1.499985
vt -4.285894 1.499985
vt -6.579488 1.952662
vt -7.259800 1.952662
vt -7.259800 1.499985
vt -6.579487 1.499985
vt -6.115409 1.499985
vt -8.066441 1.499985
vt 0.426980 3.427045
vt 0.011256 2.876955
vt 0.497598 0.801733
vt 0.514013 0.810391
vt 0.531345 0.816683
vt 0.549295 0.820502
vt 0.567558 0.821783
vt 0.567559 0.672495
vt 0.551509 0.672495
vt 0.537969 0.672495
vt 0.453746 0.672495
vt 0.440206 0.672495
vt 0.427660 0.672495
vt 0.428835 0.691662
vt 0.432406 0.710861
vt 0.438289 0.729398
vt 0.446384 0.746955
vt 0.456552 0.763232
vt 0.468619 0.777950
vt 0.482380 0.790857
vt 0.428109 0.667455
vt 0.441006 0.667455
vt 0.454923 0.667455
vt 0.541498 0.667455
vt 0.555416 0.667455
vt 0.571913 0.667455
vt 0.571913 0.807570
vt 0.553140 0.806368
vt 0.534688 0.802784
vt 0.516873 0.796878
vt 0.500000 0.788752
vt 0.484357 0.778544
vt 0.470212 0.766430
vt 0.457808 0.752616
vt 0.447356 0.737340
vt 0.439035 0.720861
vt 0.432987 0.703463
vt 0.429317 0.685443
vt 0.428087 0.162453
vt 0.441006 0.162453
vt 0.428087 0.667110
vt 0.567559 0.163909
vt 0.551509 0.163909
vt 0.567559 0.672128
vt 0.440206 0.163909
vt 0.427638 0.163909
vt 0.427638 0.672128
vt 0.454923 0.162453
vt 0.428087 0.143034
vt 0.441006 0.143034
vt 0.454923 0.151593
vt 0.571913 0.667110
vt 0.555416 0.162453
vt 0.571913 0.162453
vt 0.555416 0.143034
vt 0.571913 0.143034
vt 0.537969 0.163909
vt 0.551509 0.143219
vt 0.537969 0.152338
vt 0.567559 0.143219
vt 0.440206 0.143219
vt 0.427638 0.143219
vt 0.453746 0.163909
vt 0.453746 0.152338
vt 0.541498 0.162453
vt 0.541498 0.151593
vn 0.0000 0.0000 -1.0000
vn -1.0000 0.0000 0.0000
vn 0.0000 -1.0000 0.0000
vn 1.0000 -0.0000 0.0000
vn 0.0000 -0.0000 1.0000
vn 0.0000 0.9978 0.0659
vn 0.0000 0.9805 0.1967
vn 0.0000 0.9461 0.3238
vn 0.0000 0.8954 0.4453
vn 0.0000 0.8293 0.5588
vn 0.0000 0.7491 0.6624
vn 0.0000 0.6562 0.7545
vn 0.0000 0.5524 0.8336
vn 0.0000 0.4393 0.8983
vn 0.0000 0.3191 0.9477
vn 0.0000 0.1935 0.9811
vn 0.0000 0.0649 0.9979
vn 0.0000 -0.9967 -0.0809
vn 0.0000 -0.9710 -0.2392
vn 0.0000 -0.9218 -0.3876
vn 0.0000 -0.8534 -0.5213
vn 0.0000 -0.7704 -0.6376
vn 0.0000 -0.6773 -0.7357
vn 0.0000 -0.5779 -0.8161
vn 0.0000 -0.4748 -0.8801
vn 0.0000 -0.3699 -0.9291
vn 0.0000 -0.2643 -0.9644
vn 0.0000 -0.1586 -0.9873
vn 0.0001 -0.0528 -0.9986
vn -0.0001 -0.0528 -0.9986
vn 0.0000 -0.7885 0.6150
vn 0.0000 -0.7885 -0.6150
usemtl Columna
s off
f 1/1/1 2/2/1 3/3/1 4/4/1
f 5/5/2 6/6/2 7/7/2 8/8/2 9/9/2 10/10/2 11/11/2 12/12/2 13/13/2 14/14/2 15/15/2 16/16/2 17/17/2 2/18/2 1/19/2 18/20/2 19/21/2 20/22/2 21/23/2 22/24/2 23/25/2 24/26/2 25/27/2 26/28/2 27/29/2 28/30/2 29/31/2 30/32/2
f 31/33/3 32/34/3 33/35/3 34/36/3
f 35/37/4 36/38/4 37/39/4 38/40/4 39/41/4 40/42/4 41/43/4 42/44/4 43/45/4 44/46/4 45/47/4 46/48/4 47/49/4 48/50/4 49/51/4 50/52/4 51/53/4 4/54/4 3/55/4 52/56/4 53/57/4 54/58/4 55/59/4 56/60/4 57/61/4 58/62/4 59/63/4 60/64/4
f 61/65/5 37/66/5 6/67/5 62/68/5
f 63/69/1 1/1/1 4/4/1 64/70/1
f 65/71/4 66/72/4 64/73/4 4/54/4 51/53/4 67/74/4
f 3/75/6 2/76/6 17/77/6 52/78/6
f 52/78/7 17/77/7 16/79/7 53/80/7
f 53/80/8 16/79/8 15/81/8 54/82/8
f 54/82/9 15/81/9 14/83/9 55/84/9
f 55/84/10 14/83/10 13/85/10 56/86/10
f 56/87/11 13/88/11 12/89/11 57/90/11
f 57/90/12 12/89/12 11/91/12 58/92/12
f 58/92/13 11/91/13 10/93/13 59/94/13
f 59/94/14 10/93/14 9/95/14 60/96/14
f 60/96/15 9/95/15 8/97/15 35/98/15
f 35/98/16 8/97/16 7/99/16 36/100/16
f 36/100/17 7/99/17 6/67/17 37/66/17
f 63/101/2 68/102/2 69/103/2 70/104/2 18/20/2 1/19/2
f 61/105/4 31/106/4 34/107/4 71/108/4 38/40/4 37/39/4
f 68/109/1 63/69/1 64/70/1 66/110/1
f 68/111/3 66/112/3 65/113/3 69/114/3
f 31/115/5 61/65/5 62/68/5 32/116/5
f 72/117/5 19/118/5 18/119/5 70/120/5 73/121/5 74/122/5
f 75/123/5 76/124/5 67/125/5 51/126/5 50/127/5 77/128/5
f 78/129/1 71/130/1 34/131/1 33/132/1 79/133/1 80/134/1 81/135/1 82/136/1 83/137/1 84/138/1
f 73/121/5 70/120/5 69/139/5 65/140/5 67/125/5 76/124/5 85/141/5 86/142/5 87/143/5 88/144/5
f 89/145/18 20/146/18 19/147/18 72/148/18
f 77/149/18 50/150/18 49/151/18 90/152/18
f 91/153/19 21/154/19 20/146/19 89/145/19
f 90/152/19 49/151/19 48/155/19 92/156/19
f 93/157/20 22/158/20 21/154/20 91/153/20
f 92/156/20 48/155/20 47/159/20 94/160/20
f 94/161/21 47/162/21 46/163/21 95/164/21
f 96/165/21 23/166/21 22/167/21 93/168/21
f 95/164/22 46/163/22 45/169/22 97/170/22
f 98/171/22 24/172/22 23/166/22 96/165/22
f 45/169/23 44/173/23 99/174/23 97/170/23
f 25/175/23 24/172/23 98/171/23 100/176/23
f 44/173/24 43/177/24 101/178/24 99/174/24
f 26/179/24 25/175/24 100/176/24 102/180/24
f 43/177/25 42/181/25 103/182/25 101/178/25
f 27/183/25 26/184/25 102/185/25 104/186/25
f 42/181/26 41/187/26 105/188/26 103/182/26
f 106/189/26 28/190/26 27/191/26 104/192/26
f 105/188/27 41/187/27 40/193/27 107/194/27
f 108/195/27 29/196/27 28/190/27 106/189/27
f 107/194/28 40/193/28 39/197/28 109/198/28
f 110/199/28 30/200/28 29/196/28 108/195/28
f 80/134/29 79/133/29 5/201/29 30/200/29 110/199/29 111/202/29
f 109/198/30 39/197/30 38/203/30 71/130/30 78/129/30 112/204/30
f 82/205/3 113/206/3 114/207/3 83/208/3
f 115/209/31 116/210/31 117/211/31 118/212/31
f 118/213/3 117/214/3 87/215/3 86/216/3
f 114/217/32 113/218/32 119/219/32 120/220/32
f 120/221/3 119/222/3 116/223/3 115/224/3
f 33/225/2 32/226/2 62/227/2 6/6/2 5/5/2 79/228/2
usemtl BiomboP2
f 96/229/2 93/230/2 91/231/2 89/232/2 72/233/2 74/234/2 121/235/2 122/236/2 123/237/2 124/238/2 111/239/2 110/240/2 108/241/2 106/242/2 104/243/2 102/244/2 100/245/2 98/246/2
f 112/247/4 125/248/4 126/249/4 127/250/4 128/251/4 75/252/4 77/253/4 90/254/4 92/255/4 94/256/4 95/257/4 97/258/4 99/259/4 101/260/4 103/261/4 105/262/4 107/263/4 109/264/4
f 84/265/4 129/266/4 125/248/4 112/247/4 78/267/4
f 88/268/2 130/269/2 121/235/2 74/234/2 73/270/2
f 111/239/2 124/238/2 131/271/2 81/272/2 80/273/2
f 126/249/4 125/248/4 129/266/4 132/274/4
f 83/275/4 114/276/4 129/266/4 84/265/4
f 132/274/4 129/266/4 114/276/4 120/277/4
f 76/278/4 75/252/4 128/251/4 133/279/4 85/280/4
f 85/280/4 133/279/4 118/281/4 86/282/4
f 122/236/2 121/235/2 130/269/2 134/283/2
f 134/283/2 130/269/2 117/284/2 116/285/2
f 87/286/2 117/284/2 130/269/2 88/268/2
f 81/272/2 131/271/2 113/287/2 82/288/2
f 131/271/2 135/289/2 119/290/2 113/287/2
f 135/289/2 134/283/2 116/285/2 119/290/2
f 124/238/2 123/237/2 135/289/2 131/271/2
f 123/237/2 122/236/2 134/283/2 135/289/2
f 133/279/4 136/291/4 115/292/4 118/281/4
f 136/291/4 132/274/4 120/277/4 115/292/4
f 128/251/4 127/250/4 136/291/4 133/279/4
f 127/250/4 126/249/4 132/274/4 136/291/4
