# Blender 3.3.1
# www.blender.org
mtllib Pared_Ventana.mtl
o Cube.110
v 7.824693 6.139657 3.798929
v 7.824693 6.139657 0.206981
v 8.166148 6.139657 0.206981
v 8.166148 6.139657 3.798929
v 7.824693 5.030177 3.798929
v 7.824693 5.030177 0.206981
v 8.166148 5.030177 3.798929
v 8.166148 5.030177 0.206981
v 7.824693 5.965197 0.206981
v 7.824693 5.965197 3.798929
v 7.824693 6.139657 3.798929
v 7.824693 6.139657 0.206981
v 8.166148 6.139657 0.206981
v 8.166148 6.139657 3.798929
v 8.166148 5.965197 0.206981
v 8.166148 5.965197 3.798929
v 8.166148 5.965197 3.798929
v 8.166148 5.199528 3.798929
v 8.166148 5.965197 0.206981
v 8.166148 5.199528 0.206981
v 7.824693 5.965197 3.798929
v 7.824693 5.199528 3.798929
v 7.824693 5.199528 0.206981
v 7.824693 5.965197 0.206981
v 7.824693 5.199528 0.206981
v 7.824693 5.199528 3.798929
v 7.824693 5.030177 3.798929
v 7.824693 5.030177 0.206981
v 8.166148 5.030177 3.798929
v 8.166148 5.030177 0.206981
v 8.166148 5.199528 0.206981
v 8.166148 5.199528 3.798929
v 7.824693 8.616214 0.206981
v 8.166148 8.616214 0.206981
v 8.166148 8.616214 3.798929
v 7.824693 8.616215 3.798929
v 7.824693 10.017201 3.798929
v 7.824693 10.017201 0.206981
v 8.166148 10.017201 3.798929
v 8.166148 10.017201 0.206981
v 7.824693 8.815507 0.206981
v 8.166148 8.815507 0.206981
v 8.166148 8.815507 3.798929
v 7.824693 8.815507 3.798929
v 7.824693 9.834842 0.206981
v 8.166148 9.834842 0.206981
v 8.166148 9.834842 3.798929
v 7.824693 9.834842 3.798929
v 7.824693 9.014231 3.798929
v 7.824693 9.014231 0.206981
v 8.166148 9.014231 0.206981
v 8.166148 9.014231 3.798929
v 7.824693 9.214381 0.206981
v 8.166148 9.214381 0.206981
v 8.166148 9.214381 3.798929
v 7.824693 9.214381 3.798929
v 7.824693 8.616214 0.206981
v 8.166148 8.616214 0.206981
v 8.166148 8.616214 3.798929
v 7.824693 8.616215 3.798929
v 7.824693 8.815507 0.206981
v 8.166148 8.815507 0.206981
v 8.166148 8.815507 3.798929
v 7.824693 8.815507 3.798929
v 7.824693 9.014231 3.798929
v 7.824693 9.014231 0.206981
v 8.166148 9.014231 0.206981
v 8.166148 9.014231 3.798929
v 7.824693 9.214381 0.206981
v 8.166148 9.214381 0.206981
v 8.166148 9.214381 3.798929
v 7.824693 9.214381 3.798929
v 8.166148 8.815507 2.852155
v 8.166148 9.014231 2.852155
v 8.166148 8.815507 2.952385
v 8.166148 9.014231 2.952385
v 7.824693 8.815507 2.952495
v 7.824693 9.014231 2.952495
v 8.166148 8.815507 2.051184
v 8.166148 9.014231 2.051184
v 8.166148 8.815507 1.152529
v 8.166148 9.014231 1.152529
v 7.824693 8.815507 1.051956
v 7.824693 9.014231 1.051956
v 8.166148 8.815507 1.051964
v 8.166148 9.014231 1.051964
v 7.824693 8.815507 1.152456
v 7.824693 9.014231 1.152456
v 7.824693 8.815507 2.852007
v 7.824693 9.014231 2.852007
v 7.824693 10.017201 1.104968
v 7.824693 10.017201 2.002955
v 7.824693 10.017201 2.900942
v 8.166148 10.017201 2.900942
v 8.166148 10.017201 2.002955
v 8.166148 10.017201 1.104968
v 7.824693 9.834842 2.900942
v 7.824693 9.834842 2.002955
v 7.824693 9.834842 1.104968
v 8.166148 9.834842 1.104968
v 8.166148 9.834842 2.002955
v 8.166148 9.834842 2.900942
v 8.166148 9.214381 1.104968
v 8.166148 9.214381 2.002955
v 8.166148 9.214381 2.900942
v 7.824693 9.214381 2.900942
v 7.824693 9.214381 2.002955
v 7.824693 9.214381 1.104968
v 7.824693 6.139657 3.798929
v 7.824693 6.139657 0.206981
v 7.824693 8.616214 0.206981
v 7.824693 8.616215 3.798929
v 7.824693 6.139657 3.253393
v 8.166148 6.139657 3.798929
v 7.824693 6.139657 0.740728
v 7.824693 8.616215 3.253393
v 8.166148 6.139657 0.206981
v 7.824693 8.616214 0.740728
v 8.166148 8.616214 0.206981
v 8.166148 8.616214 3.798929
v 8.166148 6.139657 0.740728
v 8.166148 6.139657 3.253393
v 8.166148 8.616214 0.740728
v 8.166148 8.616214 3.253393
vn -0.0000 -0.0000 1.0000
vn 1.0000 -0.0000 -0.0000
vn -0.0000 -0.0000 -1.0000
vn -1.0000 -0.0000 -0.0000
vn -0.0000 -1.0000 -0.0000
vn -0.0000 1.0000 -0.0000
vt 0.569759 1.000000
vt 0.569759 0.250000
vt 0.569759 0.500000
vt 0.569759 0.750000
vt 0.875000 0.750000
vt 0.875000 0.500000
vt 0.625000 0.750000
vt 0.625000 0.500000
vt 5.234435 0.835700
vt -4.958671 1.192281
vt -4.958671 1.548863
vt 5.234435 1.192281
vt -4.958671 1.192281
vt 5.234435 0.835700
vt 5.234435 0.479118
vt -4.958671 0.835700
vt -4.958671 0.479119
vt 5.234435 1.548863
vt -4.958671 1.548863
vt 5.234435 1.192281
vt -4.958671 0.835700
vt 5.234435 1.905445
vt -4.958671 1.905445
vt 5.234435 1.548863
vt -0.752526 -0.338517
vt 1.332751 0.814952
vt -0.752526 0.393662
vt 1.332751 1.129904
vt 1.317439 -0.338518
vt -0.718622 0.500000
vt 1.317439 0.393662
vt -0.718622 0.814952
vt -0.718622 0.814952
vt 1.332751 0.185048
vt -0.718622 1.129904
vt 1.332751 0.500000
vt 1.332751 0.814952
vt -0.718622 0.500000
vt 1.332751 0.500000
vt -0.718622 0.185048
vt -4.958671 -0.905445
vt 5.234435 0.132978
vt 5.234435 -0.905445
vt -4.958671 -0.559304
vt 5.234435 -0.559304
vt -4.958671 -0.213163
vt -4.958671 -0.559304
vt 5.234435 0.479118
vt -4.958671 0.132978
vt 5.234435 -0.213163
vt -4.958671 0.479119
vt 5.234435 0.132978
vt -4.958671 0.132978
vt 5.234435 -0.213163
vt -4.958671 -0.213163
vt 5.234435 -0.559304
vt 0.472380 0.250000
vt 0.472380 0.500000
vt 0.472380 0.750000
vt 0.472380 1.000000
vt 0.125000 0.750000
vt -11.883059 -2.304372
vt 12.189262 -3.184306
vt -11.883047 -3.184621
vt 12.189228 -0.543560
vt 0.125000 0.500000
vt 0.375000 0.750000
vt -11.883068 -1.424122
vt 12.189251 -2.304058
vt -11.883081 -0.543874
vt 12.189241 -1.423808
vt 0.375000 0.500000
vt 0.459411 0.250000
vt -1.180511 1.778127
vt 0.459411 0.500000
vt -1.314049 2.566468
vt 0.459411 0.750000
vt -1.581126 1.778127
vt 0.459411 1.000000
vt -1.447588 2.567822
vt -11.883059 -2.304372
vt 12.189217 0.336689
vt 1.000106 1.090754
vt -0.000106 1.090755
vt -11.883095 0.336374
vt -0.000106 1.090755
vt 12.189228 -0.543560
vt -11.883081 -0.543874
vt 12.189241 -1.423808
vt -0.000106 1.090755
vt 1.000106 1.090754
vt -11.883068 -1.424122
vt 12.189251 -2.304058
vt 1.000106 1.090754
vt 0.444838 1.000000
vt -1.314049 2.567822
vt 0.444838 0.250000
vt -1.046973 1.778127
vt 0.444838 0.500000
vt -1.180511 2.566468
vt 0.444838 0.750000
vt -1.447588 1.778127
vt 1.000106 -0.090755
vt -0.000106 -0.090754
vt -0.000106 -0.090754
vt -0.000106 -0.090754
vt 1.000106 -0.090755
vt 1.000106 -0.090755
vt 12.189192 2.260655
vt 12.189203 1.298671
vt -11.883106 1.298358
vt 12.189192 2.260655
vt -11.883118 2.260341
vt -11.883133 3.222325
vt -11.883118 2.260341
vt 12.189177 3.222639
vt 12.189177 3.222639
vt 12.189217 0.336689
vt -11.883095 0.336374
vt 12.189203 1.298671
vt -11.883106 1.298358
vt -11.883146 4.184309
vt -11.883133 3.222323
vt 12.189165 4.184621
vt -9.627686 0.500000
vt -9.627686 2.058484
vt 9.788221 0.500000
vt 9.788221 -0.279242
vt -9.627686 -0.279241
vt 9.788221 0.500000
vt -9.627686 0.500000
vt 9.788221 2.058482
vt 9.788221 1.279241
vt 9.788221 -1.058483
vt -9.627686 -1.058483
vt 9.788221 -0.279242
vt -9.627686 -0.279242
vt 9.788221 1.279241
vt -9.627686 1.279242
vt -1.046973 1.778127
vt 6.630339 2.615005
vt -0.913435 1.778127
vt 0.500000 2.615005
vt -1.581126 2.567925
vt 6.630340 6.907810
vt -1.447588 2.567925
vt 0.500000 6.907811
vt 6.630337 -1.703207
vt -1.447588 1.778127
vt 0.499999 -1.703207
vt -1.314049 1.778127
vt -0.646358 2.524152
vt 0.500000 6.907810
vt -0.512820 2.524152
vt -5.630339 6.907811
vt -1.180511 2.566460
vt 0.499999 2.600663
vt -1.046973 2.566460
vt -5.630340 2.600663
vt 0.499999 2.600663
vt -1.314049 1.778127
vt -5.630340 2.600663
vt -1.180511 1.778127
vt 0.499999 -1.703737
vt -0.646358 2.524247
vt -5.630340 -1.703737
vt -0.779897 2.524247
vt -0.913435 2.525022
vt 6.630339 2.600662
vt -0.779897 2.525022
vt 0.499999 2.600663
vt -5.864969 -3.184542
vt 0.125000 0.562500
vt 0.153108 -3.184464
vt 0.125000 0.625000
vt 6.171185 -3.184385
vt 0.125000 0.687500
vt -5.864991 -1.424044
vt 0.375000 0.687500
vt 0.153087 -1.423965
vt 0.375000 0.625000
vt 6.171165 -1.423887
vt 0.375000 0.562500
vt 6.171174 -2.304136
vt 0.750053 1.090754
vt 0.153096 -2.304214
vt 0.500000 1.090754
vt 0.249947 1.090755
vt -5.864982 -2.304293
vt 0.249947 1.090755
vt 6.171151 -0.543639
vt 0.153073 -0.543717
vt 0.500000 1.090754
vt -5.865005 -0.543796
vt 0.750053 1.090754
vt 0.249947 -0.090754
vt 0.500000 -0.090754
vt 0.750053 -0.090755
vt 0.750053 -0.090755
vt 0.500000 -0.090754
vt 0.249947 -0.090754
vt -1.581126 1.778127
vt -1.581126 -1.573039
vt 0.083064 -1.573039
vt 0.083064 1.778127
vt -1.581126 0.940336
vt -0.011671 1.016869
vt 0.083064 -1.573039
vt -1.581126 -0.735248
vt 0.995850 1.016869
vt 0.083064 0.940336
vt -0.011671 2.028375
vt 0.083064 1.778127
vt 0.083064 -0.735248
vt 0.995850 2.028375
vt 1.747255 1.778127
vt 1.747255 -1.573039
vt 0.083064 0.940336
vt -0.011671 0.005363
vt 0.083064 -0.735248
vt 0.995850 0.005363
vt 1.747255 0.940336
vt -0.011671 1.016869
vt 1.747255 -0.735248
vt 0.995850 1.016869
s 0
usemtl Columna
f 12/15/3 13/17/3 15/21/3 9/9/3
f 8/8/5 7/7/5 5/5/5 6/6/5
f 13/18/2 14/19/2 16/23/2 15/22/2
f 14/20/1 11/13/1 10/11/1 16/24/1
f 11/14/4 12/16/4 9/10/4 10/12/4
f 26/43/4 25/41/4 28/47/4 27/45/4
f 25/42/3 31/53/3 30/51/3 28/48/3
f 31/54/2 32/55/2 29/49/2 30/52/2
f 32/56/1 26/44/1 27/46/1 29/50/1
f 93/177/6 37/61/6 39/67/6 94/179/6
f 91/172/4 38/64/4 45/81/4 99/189/4
f 38/65/3 40/70/3 46/85/3 45/82/3
f 94/178/2 39/68/2 47/88/2 102/194/2
f 39/69/1 37/62/1 48/92/1 47/89/1
f 64/123/4 61/117/4 57/109/4 60/115/4
f 61/118/3 62/119/3 58/111/3 57/110/3
f 62/120/2 63/121/2 59/113/2 58/112/2
f 63/122/1 64/124/1 60/116/1 59/114/1
f 72/139/4 69/133/4 66/127/4 65/125/4
f 69/134/3 70/135/3 67/129/3 66/128/3
f 70/136/2 71/137/2 68/131/2 67/130/2
f 71/138/1 72/139/1 65/126/1 68/132/1
f 88/166/4 84/159/4 83/157/4 87/164/4
f 77/148/4 78/150/4 90/171/4 89/169/4
f 85/160/2 86/162/2 82/155/2 81/153/2
f 73/141/2 74/143/2 76/147/2 75/145/2
f 40/71/2 96/182/2 100/191/2 46/87/2
f 96/182/2 95/180/2 101/192/2 100/191/2
f 95/180/2 94/178/2 102/194/2 101/192/2
f 37/63/4 93/176/4 97/184/4 48/93/4
f 93/176/4 92/174/4 98/186/4 97/184/4
f 92/174/4 91/172/4 99/189/4 98/186/4
f 38/66/6 91/173/6 96/183/6 40/72/6
f 91/173/6 92/175/6 95/181/6 96/183/6
f 92/175/6 93/177/6 94/179/6 95/181/6
usemtl Pared
f 35/59/1 36/60/1 1/1/1 4/4/1
f 119/216/2 123/222/2 121/218/2 117/213/2
f 33/57/3 34/58/3 3/3/3 2/2/3
f 112/205/4 116/211/4 113/206/4 109/202/4
f 52/101/1 49/95/1 44/79/1 43/77/1
f 76/146/2 52/102/2 43/78/2 75/144/2
f 50/97/3 51/99/3 42/75/3 41/73/3
f 84/158/4 50/98/4 41/74/4 83/156/4
f 87/165/4 89/168/4 90/170/4 88/167/4
f 73/140/2 81/152/2 82/154/2 74/142/2
f 49/96/4 78/151/4 77/149/4 44/80/4
f 51/100/2 86/163/2 85/161/2 42/76/2
f 118/214/4 111/204/4 110/203/4 115/209/4
f 124/224/2 120/217/2 114/208/2 122/220/2
usemtl Pared_Baja
f 19/29/2 17/25/2 18/27/2 20/31/2
f 17/26/1 21/33/1 22/35/1 18/28/1
f 24/39/3 19/30/3 20/32/3 23/37/3
f 24/40/4 23/38/4 22/36/4 21/34/4
usemtl Pared_Alta
f 47/90/1 48/94/1 56/108/1 55/106/1
f 45/83/3 46/86/3 54/105/3 53/103/3
f 99/188/4 45/84/4 53/104/4 108/201/4
f 98/187/4 99/188/4 108/201/4 107/200/4
f 46/86/2 100/190/2 103/196/2 54/105/2
f 100/190/2 101/193/2 104/197/2 103/196/2
f 102/195/2 47/91/2 55/107/2 105/198/2
f 56/108/4 48/94/4 97/185/4 106/199/4
f 98/187/4 107/200/4 106/199/4 97/185/4
f 105/198/2 104/197/2 101/193/2 102/195/2
usemtl Ventana
f 116/212/4 118/215/4 115/210/4 113/207/4
f 123/223/2 124/225/2 122/221/2 121/219/2
l 79 80
