# Blender v3.3.1 OBJ File: 'ProyectoFachada.blend'
# www.blender.org
mtllib Mesa.mtl
o Cube.003_Cube
v -4.835986 0.571218 -12.039289
v -4.835986 0.571218 -11.127820
v -4.772041 0.578675 -11.127820
v -4.772041 0.578675 -12.039289
v -7.533975 0.437824 -12.039289
v -7.533975 0.485724 -12.039289
v -7.400783 0.485724 -12.039289
v -7.400783 0.437824 -12.039289
v -7.694329 0.485724 -11.127820
v -7.694329 0.571218 -11.127820
v -7.757461 0.578676 -11.127820
v -4.835986 0.485723 -12.039289
v -4.835986 0.485723 -11.127820
v -5.003322 0.437824 -11.127820
v -5.003322 0.437824 -11.258029
v -5.003322 0.437824 -11.388240
v -5.003322 0.437824 -11.778870
v -5.003322 0.437824 -11.909080
v -5.003322 0.437824 -12.039289
v -5.003322 0.485723 -12.039289
v -5.003322 0.554152 -12.039289
v -5.003322 0.554152 -11.127820
v -5.136514 0.554152 -12.039289
v -5.136514 0.554152 -11.127820
v -5.136514 0.437824 -11.909080
v -5.136514 0.437824 -12.039289
v -5.136514 0.485723 -12.039289
v -5.003322 0.485723 -11.127820
v -7.694329 0.485724 -12.039289
v -7.694329 0.571218 -12.039289
v -7.533975 0.554152 -12.039289
v -7.757461 0.578676 -12.039289
v -7.533975 0.437824 -11.909080
v -7.533975 0.437824 -11.778869
v -7.533975 0.437824 -11.388239
v -7.533975 0.437824 -11.258029
v -7.533975 0.437824 -11.127820
v -7.533975 0.554152 -11.127820
v -7.400783 0.485724 -11.127820
v -7.400783 0.554152 -11.127820
v -7.533975 0.485724 -11.127820
v -7.400783 0.437824 -11.127820
v -7.267591 0.485724 -12.039289
v -7.267591 0.437824 -12.039289
v -5.269706 0.485723 -12.039289
v -5.269706 0.437824 -12.039289
v -5.136514 0.485723 -11.127820
v -5.136514 0.437824 -11.127820
v -5.269706 0.485723 -11.127820
v -5.269706 0.437824 -11.127820
v -7.267591 0.485724 -11.127820
v -7.267591 0.437824 -11.127820
v -5.269706 0.554152 -11.127820
v -7.267591 0.554152 -11.127820
v -7.400783 0.554152 -12.039289
v -7.267591 0.554152 -12.039289
v -5.269706 0.554152 -12.039289
v -7.400783 0.437824 -11.909080
v -7.267591 0.437824 -11.909080
v -7.267591 0.437824 -11.778870
v -5.269706 0.437824 -11.909080
v -5.269706 0.437824 -11.778870
v -5.269706 0.437824 -11.258029
v -5.136514 0.437824 -11.258029
v -5.269706 0.437824 -11.388239
v -5.136514 0.437824 -11.388239
v -5.028734 0.010657 -11.388240
v -5.161927 0.010657 -11.388239
v -5.136514 0.437824 -11.778870
v -7.400783 0.437824 -11.388239
v -7.267591 0.437824 -11.388239
v -7.375370 0.010657 -11.388239
v -7.508562 0.010657 -11.388239
v -7.267591 0.437824 -11.258029
v -7.400783 0.437824 -11.258029
v -7.508562 0.010657 -11.258029
v -7.400783 0.437824 -11.778870
v -5.161927 0.010657 -11.258029
v -5.028734 0.010657 -11.258029
v -5.161927 0.010657 -11.778870
v -5.161927 0.010657 -11.909080
v -5.028735 0.010657 -11.909080
v -5.028735 0.010657 -11.778870
v -7.375370 0.010657 -11.258029
v -7.508563 0.010657 -11.778869
v -7.508563 0.010657 -11.909080
v -7.375370 0.010657 -11.909080
v -7.375370 0.010657 -11.778870
vt 2.634714 0.166475
vt 2.634714 0.847710
vt 2.692293 0.847710
vt 2.692293 0.166475
vt 1.604912 0.079370
vt 1.974701 0.079370
vt 1.974701 0.124376
vt 1.604912 0.124377
vt 1.974701 0.025185
vt 2.634714 0.025185
vt 2.692293 0.003853
vt 1.974701 0.991037
vt 2.634714 0.991037
vt 2.692293 1.012645
vt 1.974701 0.847710
vt 1.604912 0.847710
vt 1.604912 0.750391
vt 1.604912 0.653072
vt 1.604912 0.361114
vt 1.604912 0.263795
vt 1.604912 0.166475
vt 1.974701 0.166475
vt 1.974701 0.934494
vt 2.502970 0.934494
vt 2.692293 1.012645
vt 2.634714 0.991037
vt 1.974701 0.991037
vt 2.502970 0.166475
vt 2.502970 0.847710
vt 1.040411 0.166475
vt 1.040411 0.847710
vt 0.995405 0.847710
vt 0.995405 0.166475
vt 1.040411 0.263795
vt 1.040411 0.166475
vt 0.995405 0.166475
vt 0.995405 0.263795
vt 1.974701 0.889487
vt 2.502970 0.889487
vt 2.502970 0.934494
vt 1.974701 0.934494
vt 1.974701 0.025185
vt 2.634714 0.025185
vt 2.502970 0.079370
vt 2.692293 0.166475
vt 1.974701 0.166475
vt 1.604912 0.166475
vt 1.604912 0.263795
vt 1.604912 0.361114
vt 1.604912 0.653072
vt 1.604912 0.750391
vt 1.604912 0.847710
vt 1.974701 0.847710
vt 2.692293 0.847710
vt 2.634714 0.166475
vt 2.634714 0.847710
vt 2.502970 0.847710
vt 2.502970 0.166475
vt 1.974701 0.124376
vt 2.502970 0.124376
vt 2.502970 0.079370
vt 1.974701 0.079370
vt 2.692293 0.003853
vt 1.604912 0.079370
vt 1.604912 0.124377
vt 1.604912 0.934494
vt 1.604912 0.889487
vt 1.604912 0.934494
vt 1.974701 0.169383
vt 1.604912 0.169383
vt 1.974701 0.844481
vt 1.604912 0.844481
vt 1.974701 0.889487
vt 1.604912 0.889487
vt 1.974701 0.844481
vt 1.604912 0.844481
vt 1.974701 0.169383
vt 1.604912 0.169383
vt 2.502970 0.889487
vt 2.502970 0.844481
vt 2.502970 0.169383
vt 2.502970 0.124376
vt 2.502970 0.169383
vt 2.502970 0.844481
vt 1.850528 0.263795
vt 1.850528 0.166475
vt 1.805522 0.166475
vt 1.805522 0.263795
vt 1.760515 0.166475
vt 1.760515 0.263795
vt 1.760515 0.361114
vt 1.085418 0.263795
vt 1.085418 0.361114
vt 1.085418 0.166475
vt 1.850528 0.166475
vt 1.850528 0.847710
vt 1.805522 0.847710
vt 1.805522 0.166475
vt 1.760515 0.847710
vt 1.760515 0.166475
vt 1.085418 0.847710
vt 1.085418 0.166475
vt 1.085418 0.847710
vt 1.085418 0.750391
vt 1.040411 0.750391
vt 1.040411 0.847710
vt 1.604912 0.844481
vt 1.604912 0.889487
vt -1.692820 0.925907
vt -1.692820 0.880900
vt 1.040411 0.361114
vt 1.040411 0.653072
vt 1.085418 0.653072
vt 1.604912 0.124377
vt 1.604912 0.169383
vt -1.692820 0.132964
vt -1.692820 0.087957
vt 1.760515 0.750391
vt 1.760515 0.653072
vt 1.760515 0.847710
vt 1.805522 0.847710
vt 1.805522 0.750391
vt 1.604912 0.750391
vt 1.604912 0.653072
vt -1.692820 0.653072
vt -1.692820 0.750391
vt 1.805522 0.361114
vt 1.805522 0.653072
vt 1.604912 0.750391
vt 1.604912 0.653072
vt -1.692820 0.653072
vt -1.692820 0.750391
vt 1.850528 0.847710
vt 1.850528 0.750391
vt 1.850528 0.653072
vt 1.850528 0.361114
vt 0.995405 0.750391
vt 0.995405 0.847710
vt 0.995405 0.653072
vt 0.995405 0.361114
vt 1.048998 0.750391
vt 1.048998 0.653072
vt 1.003992 0.653072
vt 1.003992 0.750391
vt 1.048998 0.361114
vt 1.048998 0.263795
vt 1.003992 0.263795
vt 1.003992 0.361114
vt 1.841941 0.750391
vt 1.841941 0.653072
vt 1.796935 0.653072
vt 1.796935 0.750391
vt 1.841941 0.361114
vt 1.841941 0.263795
vt 1.796935 0.263795
vt 1.796935 0.361114
vt 1.604912 0.263795
vt 1.604912 0.361114
vt -1.692820 0.361114
vt -1.692820 0.263795
vt 1.604912 0.263795
vt 1.604912 0.361114
vt -1.692820 0.361114
vt -1.692820 0.263795
vt 1.604912 0.169383
vt 1.604912 0.124377
vt -1.692820 0.087957
vt -1.692820 0.132964
vt 1.604912 0.361114
vt 1.604912 0.263795
vt -1.692820 0.263795
vt -1.692820 0.361114
vt 1.604912 0.889487
vt 1.604912 0.844481
vt -1.692820 0.880900
vt -1.692820 0.925907
vt 1.604912 0.361114
vt 1.604912 0.263795
vt -1.692820 0.263795
vt -1.692820 0.361114
vt 1.604912 0.124377
vt 1.604912 0.169383
vt -1.692820 0.132964
vt -1.692820 0.087957
vt 1.604912 0.844481
vt 1.604912 0.889487
vt -1.692820 0.925907
vt -1.692820 0.880900
vt 1.604912 0.653072
vt 1.604912 0.750391
vt -1.692820 0.750391
vt -1.692820 0.653072
vt 1.604912 0.653072
vt 1.604912 0.750391
vt -1.692820 0.750391
vt -1.692820 0.653072
vt 1.604912 0.169383
vt 1.604912 0.124377
vt -1.692820 0.087957
vt -1.692820 0.132964
vt 1.604912 0.889487
vt 1.604912 0.844481
vt -1.692820 0.880900
vt -1.692820 0.925907
vn -0.1087 0.9941 0.0000
vn -0.1158 0.9933 0.0000
vn 0.0000 0.0000 -1.0000
vn -0.0000 0.0000 1.0000
vn 0.5201 -0.8541 0.0000
vn -0.1015 0.9948 0.0000
vn 0.0000 1.0000 0.0000
vn -0.0000 -1.0000 0.0000
vn -0.5332 -0.8460 0.0000
vn 0.1116 0.9938 0.0000
vn 0.1058 0.9944 0.0000
vn 0.1173 0.9931 0.0000
vn -0.9696 0.2446 0.0000
vn -0.9696 -0.2446 0.0000
vn 0.9696 0.2446 0.0000
vn 0.9696 -0.2446 0.0000
usemtl MaderaMesa
s 1
f 1/1/1 2/2/1 3/3/2 4/4/2
f 5/5/3 6/6/3 7/7/3 8/8/3
f 9/9/4 10/10/4 11/11/4
f 12/12/3 1/13/3 4/14/3
f 3/3/5 13/15/5 14/16/5 15/17/5 16/18/5 17/19/5 18/20/5 19/21/5 12/22/5 4/4/5
f 20/23/3 21/24/3 1/13/3 12/12/3
f 3/25/4 2/26/4 13/27/4
f 21/28/6 22/29/6 2/2/1 1/1/1
f 23/30/7 24/31/7 22/32/7 21/33/7
f 25/34/8 26/35/8 19/36/8 18/37/8
f 27/38/3 23/39/3 21/24/3 20/23/3
f 13/27/4 2/26/4 22/40/4 28/41/4
f 29/42/3 30/43/3 31/44/3 6/6/3
f 32/45/9 29/46/9 5/47/9 33/48/9 34/49/9 35/50/9 36/51/9 37/52/9 9/53/9 11/54/9
f 30/55/10 10/56/10 38/57/11 31/58/11
f 39/59/4 40/60/4 38/61/4 41/62/4
f 32/45/12 11/54/12 10/56/10 30/55/10
f 32/63/3 30/43/3 29/42/3
f 41/62/4 38/61/4 10/10/4 9/9/4
f 37/64/4 41/62/4 9/9/4
f 42/65/4 39/59/4 41/62/4 37/64/4
f 5/5/3 29/42/3 6/6/3
f 14/66/4 13/27/4 28/41/4
f 26/67/3 27/38/3 20/23/3 19/68/3
f 19/68/3 20/23/3 12/12/3
f 8/8/3 7/7/3 43/69/3 44/70/3
f 43/69/3 45/71/3 46/72/3 44/70/3
f 46/72/3 45/71/3 27/38/3 26/67/3
f 14/66/4 28/41/4 47/73/4 48/74/4
f 48/74/4 47/73/4 49/75/4 50/76/4
f 49/75/4 51/77/4 52/78/4 50/76/4
f 52/78/4 51/77/4 39/59/4 42/65/4
f 28/41/4 22/40/4 24/79/4 47/73/4
f 47/73/4 24/79/4 53/80/4 49/75/4
f 53/80/4 54/81/4 51/77/4 49/75/4
f 51/77/4 54/81/4 40/60/4 39/59/4
f 6/6/3 31/44/3 55/82/3 7/7/3
f 7/7/3 55/82/3 56/83/3 43/69/3
f 57/84/3 45/71/3 43/69/3 56/83/3
f 45/71/3 57/84/3 23/39/3 27/38/3
f 33/85/8 5/86/8 8/87/8 58/88/8
f 58/88/8 8/87/8 44/89/8 59/90/8
f 60/91/8 59/90/8 61/92/8 62/93/8
f 61/92/8 46/94/8 26/35/8 25/34/8
f 31/95/7 38/96/7 40/97/7 55/98/7
f 55/98/7 40/97/7 54/99/7 56/100/7
f 53/101/7 57/102/7 56/100/7 54/99/7
f 57/102/7 53/101/7 24/31/7 23/30/7
f 50/103/8 63/104/8 64/105/8 48/106/8
f 65/107/3 66/108/3 67/109/3 68/110/3
f 62/93/8 69/111/8 66/112/8 65/113/8
f 70/114/3 71/115/3 72/116/3 73/117/3
f 74/118/8 71/119/8 65/113/8 63/104/8
f 71/119/8 60/91/8 62/93/8 65/113/8
f 52/120/8 74/118/8 63/104/8 50/103/8
f 46/94/8 61/92/8 59/90/8 44/89/8
f 42/121/8 75/122/8 74/118/8 52/120/8
f 75/123/13 70/124/13 73/125/13 76/126/13
f 77/127/8 60/91/8 71/119/8 70/128/8
f 63/129/14 65/130/14 68/131/14 78/132/14
f 37/133/8 36/134/8 75/122/8 42/121/8
f 36/134/8 35/135/8 70/128/8 75/122/8
f 34/136/8 77/127/8 70/128/8 35/135/8
f 34/136/8 33/85/8 58/88/8 77/127/8
f 48/106/8 64/105/8 15/137/8 14/138/8
f 64/105/8 66/112/8 16/139/8 15/137/8
f 69/111/8 17/140/8 16/139/8 66/112/8
f 69/111/8 25/34/8 18/37/8 17/140/8
f 78/141/8 68/142/8 67/143/8 79/144/8
f 80/145/8 81/146/8 82/147/8 83/148/8
f 76/149/8 73/150/8 72/151/8 84/152/8
f 85/153/8 86/154/8 87/155/8 88/156/8
f 25/157/15 69/158/15 83/159/15 82/160/15
f 59/161/16 60/162/16 88/163/16 87/164/16
f 60/165/4 77/166/4 85/167/4 88/168/4
f 62/169/14 61/170/14 81/171/14 80/172/14
f 69/173/4 62/174/4 80/175/4 83/176/4
f 77/177/13 58/178/13 86/179/13 85/180/13
f 58/181/3 59/182/3 87/183/3 86/184/3
f 61/185/3 25/186/3 82/187/3 81/188/3
f 66/189/15 64/190/15 79/191/15 67/192/15
f 71/193/16 74/194/16 84/195/16 72/196/16
f 74/197/4 75/198/4 76/199/4 84/200/4
f 64/201/4 63/202/4 78/203/4 79/204/4
